<svg width="115" height="115" viewBox="0 0 115 115" fill="none" xmlns="http://www.w3.org/2000/svg">
<rect x="0.5" width="114" height="114" rx="56.5" fill="#FFE060"/>
<path d="M64.4156 46.3967C69.2732 46.3967 73.29 48.3895 76.4662 52.3752C79.7045 56.2987 81.3237 62.3706 81.3237 70.5911C81.3237 77.0679 80.3273 82.268 78.3345 86.1914C76.4039 90.1149 73.8194 92.9484 70.581 94.6922C67.3426 96.4359 63.7929 97.3078 59.9317 97.3078C57.3784 97.3078 55.0119 96.8719 52.8322 96C50.6525 95.1281 48.7842 93.6958 47.2273 91.7029L48.5351 91.2358C49.6561 92.6059 50.9639 93.6335 52.4585 94.3185C54.0154 95.0036 55.5412 95.3461 57.0358 95.3461C60.4611 95.3461 63.0144 93.4155 64.6959 89.5544C66.3773 85.6932 67.2181 79.8081 67.2181 71.8989C67.2181 66.5432 66.8756 62.3083 66.1905 59.1945C65.5677 56.0184 64.6336 53.7764 63.3881 52.4686C62.1425 51.0986 60.6479 50.4135 58.9041 50.4135C56.7245 50.4135 54.7316 51.3165 52.9256 53.1225C51.1196 54.8663 50.092 57.3262 49.8429 60.5023L49.3758 57.2328C50.4968 53.683 52.3962 51.0051 55.0741 49.1991C57.752 47.3308 60.8659 46.3967 64.4156 46.3967ZM50.1231 22.9495V94.1317C48.5662 93.8826 46.9782 93.8826 45.359 94.1317C43.7398 94.3808 42.2451 94.8167 40.8751 95.4395C39.505 96 38.3529 96.685 37.4187 97.4946L36.0175 96.6539C36.2666 95.782 36.4223 94.9102 36.4846 94.0383C36.6091 93.1664 36.6714 92.2945 36.6714 91.4227V34.1593C36.6714 31.3569 36.2355 29.3017 35.3636 27.9939C34.554 26.6238 32.9971 25.9388 30.6928 25.9388V23.9771C32.6857 24.1639 34.6163 24.2573 36.4846 24.2573C39.0379 24.2573 41.4667 24.1639 43.7709 23.9771C46.0752 23.728 48.1926 23.3855 50.1231 22.9495Z" fill="black"/>
</svg>
