<svg xmlns:xlink="http://www.w3.org/1999/xlink" xmlns="http://www.w3.org/2000/svg" viewBox="0 0 215.48 215.48" width="215.48"  height="215.48" ><defs><linearGradient id="Unbenannter_Verlauf_6" x2="215.48" y1="107.74" y2="107.74" gradientUnits="userSpaceOnUse"><stop offset="0" stop-color="#63f"/><stop offset="1" stop-color="#a83fff"/></linearGradient><style>.cls-2{fill:#fff}</style></defs><g id="Ebene_2" data-name="Ebene 2"><g id="Ebene_1-2" data-name="Ebene 1"><g id="Verlauf_1" data-name="Verlauf 1"><rect width="215.48" height="215.48" rx="32.73" style="fill:url(#Unbenannter_Verlauf_6)"/><path d="m184.24 84.71 12.36-38.95H98.19a39 39 0 0 1 14.06 10.86c10.88 13 15 32.48 11.2 53.38-4.92 27.8-22.65 51.66-43.48 61.48H129l5.65-45.48h44.1l4.35-34.78H139l.72-6.52ZM85.56 161.1l.11-.08c.53-.37 1.06-.75 1.58-1.15s1-.79 1.55-1.2c.51-.42 1-.83 1.52-1.26s1-.84 1.45-1.27L92 156c.46-.41.91-.84 1.36-1.27s1-.94 1.45-1.42L96 152l.21-.23c.41-.44.82-.88 1.22-1.34s1-1.09 1.43-1.66c.29-.34.57-.68.85-1q2.32-2.88 4.43-6c.55-.83 1.09-1.67 1.61-2.53s1-1.72 1.54-2.6c.25-.44.49-.88.73-1.33s.49-.89.72-1.35c.48-.9.93-1.81 1.37-2.74a90.002 90.002 0 0 0 1.88-4.24c.2-.48.39-1 .58-1.45.38-1 .74-1.94 1.09-2.93l.48-1.39c0-.08 0-.16.08-.25.14-.44.29-.89.43-1.35.22-.72.44-1.45.64-2.18.16-.55.32-1.11.45-1.67.43-1.61.8-3.23 1.12-4.87.15-.7.28-1.4.4-2.1 3.52-19 0-36.54-9.75-48.2-.41-.48-.82-1-1.25-1.4-.21-.23-.42-.46-.64-.67l-.66-.65a32.76 32.76 0 0 0-5.66-4.4c-.25-.16-.5-.31-.76-.45-.76-.45-1.54-.85-2.33-1.22l-.8-.36-.9-.44-4.07 33.71-.72 6.52L85.37 126l-4.55 38.06c.55-.31 1.09-.62 1.64-.95 1.05-.62 2.08-1.29 3.1-2.01Zm-22.47-37.95c-.12 0-.2 0-.23-.1s.14.03.23.1Zm11.58-28.44h-.06c-.37-.17.68-.04.06 0Zm1.15 2.79a49.36 49.36 0 0 1-4.6 14.72 69 69 0 0 1-4.22 7.17 15 15 0 0 1-2 2.59 6.52 6.52 0 0 1-1.77 1.16.86.86 0 0 0 .1.16l-.18-.15h.06a.39.39 0 0 1 0-.13.21.21 0 0 0 0 .06s0-.13-.07-.23a1.31 1.31 0 0 0 0-.15c0 .12-.07-.14-.07-.19a.58.58 0 0 1 .07.18.59.59 0 0 0 0-.11 8.42 8.42 0 0 1 .2-3 69.58 69.58 0 0 1 1.98-8.58 65.06 65.06 0 0 1 3.07-7.89 39.58 39.58 0 0 1 4.11-7.4l.68-.71.31-.23c-.08.08-.36.32.25 0h.86a2.3 2.3 0 0 0 .53.14h-.09l.21.09.06.05a.6.6 0 0 1 .08.08l.08.08-.06-.1.16.18a.26.26 0 0 1 0-.07.39.39 0 0 1 0 .11.61.61 0 0 0 0 .16 3.69 3.69 0 0 0 .15.53 6 6 0 0 1 .1 1.48Z" class="cls-2"/><path d="M107.49 60.56c-.41-.48-.82-1-1.25-1.4-.21-.23-.42-.46-.64-.67l-.66-.65a32.76 32.76 0 0 0-5.66-4.4c-.25-.16-.5-.31-.76-.45-.76-.45-1.54-.85-2.33-1.22l-.8-.36-.88-.41h-.1c-.44-.17-.88-.34-1.33-.49h-.14c-.43-.15-.86-.28-1.3-.41-.49-.15-1-.28-1.49-.39s-.9-.21-1.36-.3l-1.17-.2-.7-.1c-.35-.05-.71-.09-1.06-.12s-.42 0-.63-.06c-.42 0-.84-.06-1.26-.08s-1.07 0-1.61 0C56.5 48.76 30.7 76.22 24.83 110c-3.37 19.15.19 36.72 9.76 48.21A32.07 32.07 0 0 0 59.72 170h2.04c.58 0 1.15-.07 1.72-.14.32 0 .64-.06 1-.1h.24c.23 0 .46 0 .68-.09l1-.16a42.74 42.74 0 0 0 8-2.27 46.85 46.85 0 0 0 5.17-2.36c.43-.22.85-.45 1.27-.69s1.09-.62 1.64-.95c1.05-.63 2.08-1.3 3.1-2l.11-.08c.53-.37 1.06-.75 1.58-1.15s1-.79 1.55-1.2c.51-.42 1-.83 1.52-1.26s1-.84 1.45-1.27L92 156c.46-.41.91-.84 1.36-1.27s1-.94 1.45-1.42L96 152l.21-.23c.41-.44.82-.88 1.22-1.34s1-1.09 1.43-1.66c.29-.34.57-.68.85-1q2.32-2.88 4.43-6c.55-.83 1.09-1.67 1.61-2.53s1-1.72 1.54-2.6c.25-.44.49-.88.73-1.33s.49-.89.72-1.35a77.727 77.727 0 0 0 2.02-4.14c.42-.94.84-1.88 1.23-2.84.2-.48.39-1 .58-1.45.38-1 .74-1.94 1.09-2.93l.48-1.39c0-.08 0-.16.08-.25.14-.44.29-.89.43-1.35.22-.72.44-1.45.64-2.18.16-.55.32-1.11.45-1.67.43-1.61.8-3.23 1.12-4.87.15-.7.28-1.4.4-2.1 3.5-19.01-.06-36.57-9.77-48.23ZM81.75 98.79v.33a56.63 56.63 0 0 1-8.06 21.18c-1.83 2.91-3.79 6.22-6.93 7.9-3.61 1.92-7.89.83-9.34-3.17-1.11-3-.22-6.5.44-9.52A66.82 66.82 0 0 1 61 105.15a73.33 73.33 0 0 1 4.79-10.09c1.59-2.76 3.54-5.72 6.93-6.29a8.11 8.11 0 0 1 6.86 1.74c2.33 2.15 2.57 5.3 2.17 8.28Z" class="cls-2"/><path d="M63 122.68c0 .12-.07-.14-.07-.19a.58.58 0 0 1 .07.19Zm.09.47h.06a.39.39 0 0 1 0-.13.21.21 0 0 0 0 .06v.06a.86.86 0 0 0 .1.16ZM74 94.72Zm.67-.01h-.06c-.37-.17.68-.04.06 0Zm.75.29c-.06 0-.17-.13-.26-.18h-.09l.21.09.06.05a.6.6 0 0 1 .08.08s0-.04 0-.04Zm.22.25a.17.17 0 0 1 0 .07 1.74 1.74 0 0 0-.11-.18l-.06-.1.16.18Zm.02.01Z" style="fill:#1c0e42"/><path d="M180.45 156a5.44 5.44 0 0 0-1-5.13c-2.74-3.11-7.78-1.73-9-1.46-1.08.23-2 .9-2 2 0 0-.14 1.59.62 1.74a107.77 107.77 0 0 0-1.84 11.21 2 2 0 0 0 1.75 2.23h.24a2 2 0 0 0 2-1.76c.15-1.27.33-2.61.52-3.91l5.08 5.08a2 2 0 0 0 2.82-2.82l-3.85-3.85c.39-.06.76-.12 1.1-.19a4.73 4.73 0 0 0 3.56-3.14Zm-3.79-1.26c0 .12-.13.38-.69.5a22.65 22.65 0 0 1-3.44.34 13.4 13.4 0 0 1 .65-2.49 1.88 1.88 0 0 0 .12-.3c1.44 0 2.68.23 3.11.72a1.44 1.44 0 0 1 .25 1.19Z" class="cls-2"/><path d="M187 145.62a12.55 12.55 0 0 0-7.58-5.43 2.43 2.43 0 0 0-1.38-.43c-7.4-.19-14.68 1.91-19.21 8.1-4.28 5.84-5.35 14.39-1.55 20.75a14.69 14.69 0 0 0 9.16 6.48 22.76 22.76 0 0 0 12.09.16c7.33-2.25 12.05-9.26 12.27-16.79a23.59 23.59 0 0 0-3.8-12.84Zm-8.53 24.22a14.78 14.78 0 0 1-8.48.78c-2.82-.43-5.86-1.33-7.7-3.67-3.3-4.21-2.69-10.5-.13-14.89 3.2-5.48 9-7.21 15-7.21a12.29 12.29 0 0 1 3.43 1.31 6.07 6.07 0 0 1 1.76 1.69 20 20 0 0 1 3.21 8.07c.76 5.63-1.85 11.47-7.11 13.92Z" class="cls-2"/><path d="M180.45 156a5.44 5.44 0 0 0-1-5.13c-2.74-3.11-7.78-1.73-9-1.46-1.08.23-2 .9-2 2 0 0-.14 1.59.62 1.74a107.77 107.77 0 0 0-1.84 11.21 2 2 0 0 0 1.75 2.23h.24a2 2 0 0 0 2-1.76c.15-1.27.33-2.61.52-3.91l5.08 5.08a2 2 0 0 0 2.82-2.82l-3.85-3.85c.39-.06.76-.12 1.1-.19a4.73 4.73 0 0 0 3.56-3.14Zm-3.79-1.26c0 .12-.13.38-.69.5a22.65 22.65 0 0 1-3.44.34 13.4 13.4 0 0 1 .65-2.49 1.88 1.88 0 0 0 .12-.3c1.44 0 2.68.23 3.11.72a1.44 1.44 0 0 1 .25 1.19Z" class="cls-2"/></g></g></g></svg>